<?xml version="1.0" standalone="no"?><!-- Generator: Gravit.io --><svg xmlns="http://www.w3.org/2000/svg" xmlns:xlink="http://www.w3.org/1999/xlink" style="isolation:isolate" viewBox="0 0 512 120" width="512" height="120"><defs><clipPath id="_clipPath_zUHq3kLUqbzDXBlTVf1S6kP0wprPUMdA"><rect width="512" height="120"/></clipPath></defs><g clip-path="url(#_clipPath_zUHq3kLUqbzDXBlTVf1S6kP0wprPUMdA)"><g id="Group"><path d=" M 26 29.13 L 54.728 14.222 L 83.457 29.13 L 54.728 44.037 L 26 29.13 Z " fill-rule="evenodd" fill="rgb(255,202,44)"/><path d=" M 26 58.945 L 54.728 44.037 L 83.457 58.945 L 54.728 73.851 L 26 58.945 Z " fill-rule="evenodd" fill="rgb(255,202,44)"/><path d=" M 54.728 44.037 L 83.457 29.13 L 112.185 44.037 L 83.457 58.945 L 54.728 44.037 Z " fill-rule="evenodd" fill="rgb(135,149,202)"/><path d=" M 83.457 29.13 L 112.185 14.222 L 140.913 29.13 L 112.185 44.037 L 83.457 29.13 Z " fill-rule="evenodd" fill="rgb(255,202,44)"/><path d=" M 83.457 58.945 L 112.185 44.037 L 140.913 58.945 L 112.185 73.851 L 83.457 58.945 Z " fill-rule="evenodd" fill="rgb(255,202,44)"/><path d=" M 26 29.13 L 54.728 44.037 L 26 58.945 L 26 29.13 Z " fill-rule="evenodd" fill="rgb(38,89,165)"/><path d=" M 140.913 29.13 L 112.185 44.037 L 140.913 58.945 L 140.913 29.13 Z " fill-rule="evenodd" fill="rgb(38,89,165)"/><path d=" M 26 58.945 L 54.727 73.851 L 54.728 103.667 L 26 88.759 L 26 58.945 Z " fill-rule="evenodd" fill="rgb(135,149,202)"/><path d=" M 140.913 58.945 L 112.185 73.851 L 112.185 103.667 L 140.913 88.759 L 140.913 58.945 Z " fill-rule="evenodd" fill="rgb(135,149,202)"/><path d=" M 83.457 58.945 L 112.184 73.851 L 112.185 103.667 L 83.457 88.759 L 54.728 103.667 L 54.729 73.851 L 83.457 58.945 Z " fill-rule="evenodd" fill="rgb(38,89,165)"/><path d=" M 436.67 84.161 C 436.67 85.096 436.635 85.903 436.547 86.548 C 436.263 88.63 434.79 89.358 433.535 89.355 L 404.554 89.286 C 400.643 89.269 398.048 88.296 395.305 85.56 C 392.977 83.239 391.735 80.477 391.735 77.149 L 391.735 29.825 C 391.735 29.519 391.888 29.072 392.113 28.826 C 392.346 28.572 392.715 28.366 393.224 28.213 C 393.738 28.06 394.441 27.923 395.323 27.826 C 396.204 27.73 397.298 27.681 398.604 27.681 C 399.944 27.681 401.038 27.73 401.902 27.826 C 402.766 27.923 403.944 28.062 404.458 28.213 C 404.984 28.368 405.349 28.577 405.569 28.826 C 405.789 29.076 405.879 29.52 405.879 29.825 L 405.879 78.759 L 433.535 78.828 C 434.848 78.831 436.263 79.422 436.547 81.505 C 436.634 82.15 436.67 83.209 436.67 84.161 Z  M 333.262 84.184 C 333.21 87.713 332.369 89.283 330.274 89.286 L 287.554 89.351 C 285.841 89.353 283.773 89.128 283.049 87.858 C 282.152 86.284 281.888 83.135 282.619 81.305 C 283.756 78.458 286.575 75.199 288.134 73.195 L 314.853 38.828 L 284.761 38.671 C 284.357 38.669 284.003 38.59 283.704 38.413 C 283.404 38.236 283.17 37.963 282.98 37.59 C 282.783 37.205 282.654 36.701 282.575 36.074 C 282.495 35.444 282.434 34.019 282.434 33.148 C 282.434 32.196 282.495 31.407 282.575 30.761 C 282.654 30.117 282.79 29.584 282.98 29.196 C 283.177 28.794 283.407 28.524 283.704 28.373 C 284.006 28.218 284.356 28.131 284.761 28.131 L 326.658 28.131 C 328.481 28.131 330.353 28.003 331.396 28.41 C 333.166 29.101 333.025 31.209 333.076 32.758 C 333.216 36.923 331.479 37.957 329.864 40.035 L 299.851 78.62 L 330.46 78.62 C 332.804 78.62 333.319 80.362 333.262 84.184 Z  M 276.693 66.625 C 276.687 70.421 276.088 73.826 274.876 76.839 C 273.673 79.832 271.896 82.388 269.567 84.467 C 267.222 86.545 264.33 88.116 260.873 89.213 C 257.433 90.294 253.465 90.834 249.003 90.834 C 244.788 90.834 241.013 90.359 237.68 89.377 C 234.329 88.395 231.507 86.922 229.197 84.941 C 226.904 82.96 225.14 80.489 223.905 77.526 C 222.688 74.58 222.071 71.11 222.071 67.149 L 222.071 29.92 C 222.071 27.57 227.033 27.392 228.897 27.392 C 230.76 27.392 235.68 27.714 235.668 29.756 L 235.469 65.303 C 235.455 67.758 235.784 69.887 236.439 71.703 C 237.088 73.504 238.044 75.009 239.261 76.188 C 240.477 77.366 241.942 78.25 243.652 78.839 C 245.363 79.428 247.268 79.739 249.367 79.739 C 251.501 79.739 252.969 79.803 254.661 79.198 C 257.961 78.02 260.433 75.544 261.663 72.226 C 262.299 70.509 262.133 68.184 262.135 66.023 L 262.159 30.26 C 262.161 27.808 268.796 27.392 270.026 27.392 C 271.331 27.392 272.408 27.442 273.254 27.539 C 274.323 27.662 276.748 28.644 276.747 30.199 L 276.693 66.625 Z  M 216.628 46.095 C 217.273 65.701 205.289 66.956 190.765 67.094 L 181.31 67.184 L 181.243 87.804 C 181.242 88.109 181.12 88.402 180.908 88.643 C 180.68 88.902 180.306 89.106 179.796 89.256 C 179.266 89.412 178.579 89.545 177.715 89.643 C 176.869 89.739 174.966 89.576 173.626 89.576 C 172.321 89.576 171.227 89.528 170.346 89.431 C 169.464 89.334 168.758 89.205 168.246 89.044 C 167.735 88.899 167.374 88.682 167.171 88.431 C 166.968 88.181 166.852 87.898 166.853 87.592 L 167.071 31.751 C 167.077 30.283 167.496 29.17 168.342 28.428 C 169.187 27.687 170.3 27.327 171.675 27.315 L 191.469 27.146 C 201.968 27.056 214.287 27.971 215.857 39.368 C 216.149 41.486 216.546 43.612 216.628 46.095 Z  M 202.734 47.874 C 202.893 36.308 197.584 38.002 187.065 38.002 L 181.28 38.002 L 181.28 56.525 L 187.365 56.525 C 195.045 56.525 202.591 58.351 202.734 47.874 Z  M 386.465 84.184 C 386.412 87.713 385.571 89.283 383.476 89.286 L 340.757 89.351 C 339.043 89.353 336.976 89.128 336.252 87.858 C 335.355 86.284 335.091 83.135 335.821 81.305 C 336.959 78.458 339.778 75.199 341.336 73.195 L 368.056 38.828 L 337.964 38.671 C 337.56 38.669 337.205 38.59 336.906 38.413 C 336.607 38.236 336.373 37.963 336.183 37.59 C 335.986 37.205 335.856 36.701 335.777 36.074 C 335.698 35.444 335.636 34.019 335.636 33.148 C 335.636 32.196 335.698 31.407 335.777 30.761 C 335.856 30.117 335.992 29.584 336.183 29.196 C 336.38 28.794 336.61 28.524 336.906 28.373 C 337.209 28.218 337.559 28.131 337.964 28.131 L 379.861 28.131 C 381.684 28.131 383.556 28.003 384.599 28.41 C 386.369 29.101 386.227 31.209 386.279 32.758 C 386.418 36.923 384.682 37.957 383.066 40.035 L 353.054 78.62 L 383.663 78.62 C 386.007 78.62 386.522 80.362 386.465 84.184 Z  M 486 84.161 C 486 85.096 485.964 85.903 485.876 86.548 C 485.593 88.629 484.119 89.358 482.865 89.355 L 452.92 89.286 C 449.008 89.269 446.413 88.296 443.67 85.56 C 441.342 83.239 440.101 80.477 440.101 77.149 L 440.101 73.421 L 440.101 43.804 L 440.101 40.075 C 440.101 36.748 441.342 33.986 443.67 31.665 C 446.413 28.929 449.008 27.956 452.92 27.939 L 482.865 27.87 C 484.119 27.867 485.593 28.596 485.876 30.677 C 485.964 31.322 486 32.128 486 33.064 C 486 34.016 485.964 35.075 485.876 35.719 C 485.594 37.803 484.178 38.394 482.865 38.397 L 454.245 38.466 L 454.245 43.761 L 454.245 43.804 L 454.245 51.638 L 479.265 51.701 C 480.578 51.704 481.993 52.295 482.277 54.379 C 482.364 55.023 482.4 56.082 482.4 57.034 C 482.4 57.97 482.365 58.777 482.277 59.422 C 481.993 61.503 480.52 62.231 479.265 62.228 L 454.245 62.169 L 454.245 73.465 L 454.245 78.759 L 482.865 78.828 C 484.178 78.83 485.594 79.422 485.876 81.505 C 485.964 82.15 486 83.209 486 84.161 Z " fill="rgb(38,89,165)"/></g></g></svg>